<svg width="105" height="106" viewBox="0 0 105 106" fill="none" xmlns="http://www.w3.org/2000/svg">
<path fill-rule="evenodd" clip-rule="evenodd" d="M52.5 105.402C81.4951 105.402 105 81.897 105 52.9021C105 23.9072 81.4951 0.4021 52.5 0.4021C23.5049 0.4021 0 23.9072 0 52.9021C0 81.897 23.5049 105.402 52.5 105.402ZM77.7173 28.2849L69.042 63.9255L70.0767 68.2744L71.0786 61.9644L78.7515 28.2849H85.3037L73.4028 77.1765L73.4551 77.519H73.3193H67.5137H67.3779L66.4922 74.3992L65.8164 77.1755L65.8691 77.519H65.7329H59.9277H59.7915L56.0742 64.4258L52.5 52.2805L48.9136 64.467L45.208 77.519H45.0723H39.2666H39.1309L39.1836 77.1765L38.5073 74.3999L37.6221 77.519H37.4858H31.6807H31.5444L31.5972 77.1755L19.6958 28.2849H26.2485L33.9214 61.9644L34.9233 68.2732L35.958 63.9255L27.2822 28.2849H33.8345L39.2598 52.0974L45.8721 28.2849H46.0415H51.3721H51.5415L52.5 31.7363L53.458 28.2849H53.6279H58.958H59.1279L65.7402 52.0967L71.165 28.2849H77.7173ZM62.4902 68.2732L63.2974 63.1914L56.9551 41.6418L56.293 38.4595L55.6309 41.6418L55.4351 42.3071L58.3359 52.7542L61.1499 62.6406L62.4902 68.2732ZM42.5098 68.2744L41.7021 63.1914L48.0444 41.6418L48.7065 38.4583L49.3691 41.6418L49.5645 42.3064L46.646 52.8162L43.8501 62.6406L42.5098 68.2744ZM32.4971 88.7249L32.415 88.1624L31.7412 85.2415H31.1787L32.21 89.5071H32.7227L33.6338 86.3987L33.7012 86.0735L33.7686 86.3987L34.6475 89.5071H35.1602L36.1943 85.2415H35.6289L34.9668 88.1594L34.876 88.7336L34.7588 88.218L33.9355 85.2415H33.4609L32.6172 88.218L32.4971 88.7249ZM37.4663 89.4937C37.6167 89.5417 37.7808 89.5657 37.958 89.5657C38.4893 89.5657 38.8877 89.3616 39.1533 88.9534L38.8223 88.6956C38.7227 88.8245 38.6064 88.928 38.4736 89.0061C38.3408 89.0842 38.1787 89.1233 37.9873 89.1233C37.7178 89.1233 37.4951 89.0276 37.3193 88.8362C37.1455 88.6428 37.0547 88.3899 37.0469 88.0774H39.1943V87.8518C39.1943 87.3459 39.0801 86.9573 38.8516 86.6858C38.7114 86.5193 38.5366 86.4038 38.3271 86.3394C38.1953 86.2988 38.0498 86.2786 37.8906 86.2786C37.6387 86.2786 37.4043 86.3489 37.1875 86.4895C36.9727 86.6282 36.8047 86.8215 36.6836 87.0696C36.5645 87.3157 36.5049 87.5959 36.5049 87.9104V88.01C36.5049 88.4827 36.6396 88.8606 36.9092 89.1438C37.0674 89.3088 37.2529 89.4255 37.4663 89.4937ZM37.3398 86.9641C37.4883 86.804 37.6719 86.7239 37.8906 86.7239C38.1172 86.7239 38.2969 86.8 38.4297 86.9524C38.5625 87.1028 38.6367 87.3157 38.6523 87.5911V87.6321H37.0645C37.0996 87.345 37.1914 87.1223 37.3398 86.9641ZM41.7051 89.1731C41.7246 89.3333 41.75 89.4446 41.7812 89.5071H42.3496V89.4602C42.2754 89.2883 42.2383 89.0569 42.2383 88.7659V87.3069C42.2305 86.9866 42.123 86.7356 41.916 86.554C41.709 86.3704 41.4229 86.2786 41.0576 86.2786C40.8271 86.2786 40.6152 86.3215 40.4219 86.4075C40.2305 86.4934 40.0781 86.6106 39.9648 86.759C39.8535 86.9055 39.7979 87.0579 39.7979 87.2161H40.3428C40.3428 87.0774 40.4082 86.9592 40.5391 86.8616C40.6699 86.7639 40.832 86.7151 41.0254 86.7151C41.2461 86.7151 41.4131 86.7717 41.5264 86.885C41.6396 86.9963 41.6963 87.1467 41.6963 87.3362V87.5852H41.1689C40.7139 87.5852 40.3604 87.677 40.1084 87.8606C39.8584 88.0422 39.7334 88.2981 39.7334 88.6282C39.7334 88.8997 39.833 89.1243 40.0322 89.302C40.2334 89.4778 40.4902 89.5657 40.8027 89.5657C41.1523 89.5657 41.4531 89.4348 41.7051 89.1731ZM41.3652 88.9622C41.2129 89.05 41.0518 89.094 40.8818 89.094C40.7041 89.094 40.5586 89.0461 40.4453 88.9504C40.332 88.8547 40.2754 88.7219 40.2754 88.552C40.2754 88.1633 40.6074 87.969 41.2715 87.969H41.6963V88.6194C41.6279 88.76 41.5176 88.8743 41.3652 88.9622ZM43.8232 86.3372V85.5696H43.2812V86.3372H42.7041V86.7561H43.2812V88.7219C43.2812 88.9915 43.3428 89.1995 43.4658 89.3459C43.5513 89.4473 43.665 89.5137 43.8071 89.5449C43.8701 89.5588 43.939 89.5657 44.0137 89.5657C44.1484 89.5657 44.2871 89.5461 44.4297 89.5071V89.0676C44.3203 89.0911 44.2344 89.1028 44.1719 89.1028C44.0449 89.1028 43.9551 89.0715 43.9023 89.009C43.8496 88.9446 43.8232 88.8489 43.8232 88.7219V86.7561H44.415V86.3372H43.8232ZM46.5303 86.2786C46.1455 86.2786 45.833 86.426 45.5928 86.7209V85.0071H45.0508V89.5071H45.5928V87.2483C45.667 87.0959 45.7705 86.9729 45.9033 86.8792C45.9551 86.8428 46.0098 86.8135 46.0679 86.7913C46.1592 86.7561 46.2588 86.7385 46.3662 86.7385C46.583 86.7385 46.7422 86.7932 46.8438 86.9026C46.9473 87.012 47 87.1809 47.002 87.4094V89.5071H47.5439V87.4124C47.5381 86.6565 47.2002 86.2786 46.5303 86.2786ZM49.1621 89.488C49.3169 89.5398 49.4863 89.5657 49.6709 89.5657C50.2021 89.5657 50.6006 89.3616 50.8662 88.9534L50.5352 88.6956C50.4355 88.8245 50.3193 88.928 50.1865 89.0061C50.0537 89.0842 49.8916 89.1233 49.7002 89.1233C49.4307 89.1233 49.208 89.0276 49.0322 88.8362C48.9424 88.7363 48.875 88.6206 48.8296 88.489C48.7866 88.3657 48.7637 88.2285 48.7598 88.0774H50.9072V87.8518C50.9072 87.3459 50.793 86.9573 50.5645 86.6858C50.4238 86.5186 50.248 86.4031 50.0381 86.3386C49.9067 86.2986 49.7617 86.2786 49.6035 86.2786C49.4751 86.2786 49.3511 86.2969 49.2319 86.3335C49.1172 86.3687 49.0068 86.4207 48.9004 86.4895C48.6855 86.6282 48.5176 86.8215 48.3965 87.0696C48.2773 87.3157 48.2178 87.5959 48.2178 87.9104V88.01C48.2178 88.4827 48.3525 88.8606 48.6221 89.1438C48.7759 89.3044 48.9561 89.4192 49.1621 89.488ZM49.0527 86.9641C49.2012 86.804 49.3848 86.7239 49.6035 86.7239C49.8301 86.7239 50.0098 86.8 50.1426 86.9524C50.2754 87.1028 50.3496 87.3157 50.3652 87.5911V87.6321H48.7773C48.8125 87.345 48.9043 87.1223 49.0527 86.9641ZM52.8027 86.803C52.8984 86.803 52.9873 86.8098 53.0693 86.8235V86.3196C53.0146 86.2922 52.9346 86.2786 52.8291 86.2786C52.5029 86.2786 52.251 86.4202 52.0732 86.7034L52.0645 86.3372H51.5371V89.5071H52.0791V87.2571C52.2061 86.9543 52.4473 86.803 52.8027 86.803ZM56.1455 88.7249L56.0635 88.1624L55.3896 85.2415H54.8271L55.8584 89.5071H56.3711L57.2822 86.3987L57.3496 86.0735L57.417 86.3987L58.2959 89.5071H58.8086L59.8428 85.2415H59.2773L58.6152 88.1594L58.5244 88.7336L58.4072 88.218L57.584 85.2415H57.1094L56.2656 88.218L56.1455 88.7249ZM60.4316 89.5071H60.9736V86.3372H60.4316V89.5071ZM60.4668 85.2737C60.4141 85.3342 60.3877 85.4084 60.3877 85.4963C60.3877 85.5842 60.4141 85.6575 60.4668 85.7161C60.5024 85.7544 60.5488 85.78 60.6064 85.7932C60.6367 85.8003 60.6704 85.804 60.707 85.804C60.8125 85.804 60.8926 85.7747 60.9473 85.7161C60.9683 85.6936 60.9849 85.6689 60.9976 85.6423C61.0186 85.5994 61.0293 85.5505 61.0293 85.4963C61.0293 85.4084 61.002 85.3342 60.9473 85.2737C60.8926 85.2131 60.8125 85.1829 60.707 85.1829C60.6016 85.1829 60.5215 85.2131 60.4668 85.2737ZM64.208 89.0647H62.3535L64.1201 86.7209V86.3372H61.7178V86.7854H63.4404L61.6914 89.1086V89.5071H64.208V89.0647ZM66.7012 89.1731C66.7207 89.3333 66.7461 89.4446 66.7773 89.5071H67.3457V89.4602C67.2715 89.2883 67.2344 89.0569 67.2344 88.7659V87.3069C67.2266 86.9866 67.1191 86.7356 66.9121 86.554C66.7051 86.3704 66.4189 86.2786 66.0537 86.2786C65.8975 86.2786 65.7495 86.2983 65.6104 86.3379C65.5444 86.3567 65.48 86.3799 65.418 86.4075C65.2266 86.4934 65.0742 86.6106 64.9609 86.759C64.8496 86.9055 64.7939 87.0579 64.7939 87.2161H65.3389C65.3389 87.0774 65.4043 86.9592 65.5352 86.8616C65.666 86.7639 65.8281 86.7151 66.0215 86.7151C66.2422 86.7151 66.4092 86.7717 66.5225 86.885C66.5845 86.946 66.6299 87.0188 66.6582 87.1033C66.6812 87.1729 66.6924 87.2505 66.6924 87.3362V87.5852H66.165C65.71 87.5852 65.3564 87.677 65.1045 87.8606C64.8545 88.0422 64.7295 88.2981 64.7295 88.6282C64.7295 88.8997 64.8291 89.1243 65.0283 89.302C65.2295 89.4778 65.4863 89.5657 65.7988 89.5657C66.1484 89.5657 66.4492 89.4348 66.7012 89.1731ZM66.3613 88.9622C66.209 89.05 66.0479 89.094 65.8779 89.094C65.7764 89.094 65.6851 89.0784 65.6045 89.0471C65.5444 89.0237 65.4897 88.9915 65.4414 88.9504C65.3281 88.8547 65.2715 88.7219 65.2715 88.552C65.2715 88.1633 65.6035 87.969 66.2676 87.969H66.6924V88.6194C66.624 88.76 66.5137 88.8743 66.3613 88.9622ZM69.3496 86.803C69.4453 86.803 69.5342 86.8098 69.6162 86.8235V86.3196C69.5615 86.2922 69.4814 86.2786 69.376 86.2786C69.0498 86.2786 68.7979 86.4202 68.6201 86.7034L68.6113 86.3372H68.084V89.5071H68.626V87.2571C68.7529 86.9543 68.9941 86.803 69.3496 86.803ZM70.2725 86.7239C70.042 87.0188 69.9268 87.4094 69.9268 87.8958V87.9368C69.9268 88.4211 70.042 88.8137 70.2725 89.1145C70.5049 89.4153 70.8047 89.5657 71.1719 89.5657C71.5586 89.5657 71.8604 89.4329 72.0771 89.1672L72.1035 89.5071H72.6016V85.0071H72.0596V86.6594C71.8428 86.4055 71.5488 86.2786 71.1777 86.2786C70.8047 86.2786 70.5029 86.427 70.2725 86.7239ZM70.6914 88.801C70.543 88.5979 70.4688 88.3167 70.4688 87.9573C70.4688 87.5549 70.543 87.2512 70.6914 87.0461C70.8398 86.8411 71.0469 86.7385 71.3125 86.7385C71.6484 86.7385 71.8975 86.8879 72.0596 87.1868V88.6428C71.9014 88.9514 71.6504 89.1057 71.3066 89.1057C71.0449 89.1057 70.8398 89.0042 70.6914 88.801Z" fill="black"/>
</svg>
